<svg
    xmlns="http://www.w3.org/2000/svg"
    viewBox="0 0 320 320"
    id="vector">
    <path
        id="path"
        d="M 271.2 224.8 C 272.3 226 272.9 227.7 273 229.2 C 273 230.7 272.5 232.1 272 233.2 C 271.5 234.3 270.8 235.1 270.1 235.9 C 269.8 236.3 269.4 236.6 269 237 C 268.5 237.4 268.4 237.4 267.9 237.9 C 266.4 239.2 264.7 240.2 263 241 C 259.6 242.7 255.8 243.7 251.8 243.5 C 249.8 243.3 247.8 242.9 246 241.8 C 245.1 241.3 244.3 240.6 243.6 239.9 C 243.5 239.8 243.4 239.7 243.3 239.6 C 242.4 240.3 241.6 240.8 240.9 241.3 C 240.3 241.7 239.7 242 239.2 242.2 C 238.7 242.4 238.1 242.5 237.6 242.6 C 237 242.6 236.6 242.6 236.3 242.6 C 236 242.5 235.8 242.5 235.8 242.5 L 235.7 242.5 C 234.4 242.3 233.5 241.3 233.2 240.1 C 233.2 240.1 233.1 240 233.1 239.6 C 233 239.3 233 238.8 233.1 238.3 C 233.1 237.8 233.3 237.2 233.6 236.6 C 233.9 236.1 234.4 235.4 234.8 234.8 C 235.2 234.2 235.9 233.4 236.6 232.8 C 237.4 232.2 238.2 231.5 239.1 230.9 C 239.4 230.8 239.6 230.6 239.9 230.4 C 239.9 229.3 240 228.2 240.4 227.2 C 241.5 223.9 243.5 221.5 245.6 219.7 C 247.7 218 249.9 216.7 251.9 215.9 C 253.9 215.1 255.7 214.6 257.2 214.2 C 258.7 213.9 259.9 213.7 260.7 213.6 C 261.5 213.6 262 213.5 262 213.5 C 262.3 213.5 262.6 213.7 262.6 214 C 262.6 214.3 262.4 214.5 262.1 214.6 C 262.1 214.6 261.7 214.7 260.9 214.9 C 260.1 215.1 259 215.3 257.6 215.8 C 256.2 216.3 254.5 216.9 252.7 217.8 C 250.8 218.7 248.9 219.9 247.2 221.7 C 245.5 223.5 243.9 225.6 243.4 228.1 C 244 227.7 244.7 227.4 245.3 227 C 247.8 225.7 250.5 224.4 253.6 223.3 C 255.2 222.7 256.9 222.3 258.5 221.9 C 260.4 221.5 262.4 221.3 264.5 221.6 C 265.5 221.7 266.6 221.9 267.8 222.4 C 269 222.9 270.2 223.6 271.2 224.8 Z M 266 230.3 C 266.2 230 266.1 229.5 266.1 229.3 C 266 229.2 265.8 229 265.4 228.9 C 264.9 228.8 264.4 228.7 263.9 228.7 C 262.8 228.7 261.6 228.8 260.4 229.2 C 260 229.3 259.7 229.5 259.3 229.6 C 258.4 230 257.5 230.2 256.6 230.7 C 254.2 231.8 252 233 250 234.3 C 248.7 235.1 247.4 236 246.3 236.9 C 246.7 237.3 247.3 237.6 247.8 237.9 C 249 238.4 250.3 238.6 251.7 238.6 C 254.6 238.5 257.6 237.4 260.2 235.9 C 261.4 235.2 262.7 234.3 263.7 233.3 C 263.9 233.1 264.3 232.7 264.5 232.5 C 264.6 232.3 264.9 232.1 265.1 231.8 C 265.5 231.3 265.8 230.8 266 230.3 Z M 266 230.3 C 265.8 230.8 266.2 230 266 230.3 Z"
        fill="#009fe3"/>
    <path
        id="path_1"
        d="M 253.4 201.5 C 253.8 201.2 253.8 200.7 254 200.2 C 256.1 193.5 257.3 186.5 258.5 179.7 C 259.8 172 260.7 164.2 261.5 156.5 C 263.1 140.9 264 125.1 264.5 109.4 C 264.7 105.9 265.2 102.3 264 98.8 C 263 95.9 259.6 94 256.5 94.2 C 253.4 94.4 250.7 96.8 250 99.7 C 249.2 103.1 250 106.8 250.3 110.3 C 251.6 125.8 252.6 141.5 253.1 157.1 C 253.4 165 253.5 172.8 253.4 180.6 C 253.3 187.3 253 194 252.1 200.6 C 252 201.3 252.8 201.9 253.4 201.5 Z"
        fill="#009fe3"/>
    <path
        id="path_2"
        d="M 50.8 246 C 52.4 247 54.9 247.2 57.5 246.9 C 60.2 246.7 63 246 65.7 245.4 C 71.3 244.1 77.1 242.7 82.9 241.6 C 94.8 239.4 106.7 237.4 118.7 235.9 C 131 234.5 143.4 233.5 155.8 233 C 167.9 232.5 180 232.4 192.1 232.6 C 197.7 232.6 203.3 232.8 208.8 233.1 C 210.9 233.2 213.1 233.3 215.3 233.4 C 215.7 233.4 216 233.4 216.3 233.4 C 217.1 233.3 217.2 232.3 216.4 232 C 215.2 231.6 213.9 231.7 212.7 231.5 C 210 231.1 207.3 230.8 204.6 230.5 C 198.9 229.9 193.2 229.3 187.5 228.8 C 175.5 227.7 163.4 227.1 151.4 226.9 C 138.9 226.7 126.6 227.1 114.1 227.8 C 102.1 228.5 90 229.7 78.1 231.6 C 72.5 232.4 66.7 233.3 61 234.4 C 56.4 235.3 52 235.9 49.5 240.3 C 48.5 242.3 49 245 50.8 246 Z"
        fill="#009fe3"/>
    <path
        id="path_3"
        d="M 221.5 196.7 L 196.8 163.1 L 220.1 134.8 L 202.5 134.8 L 181.8 161 L 181.8 103.5 L 166.1 106 L 166.1 198.1 L 181.8 198.1 L 181.8 166.8 L 205 199 Z"
        fill="#000000"/>
    <path
        id="path_4"
        d="M 140.2 198.1 L 156.1 198.1 L 156.1 152.5 C 156.1 140.7 149.8 133.5 138 133.5 C 129.5 133.5 122.8 138.1 116.9 143.7 L 115.4 134.8 L 102 134.8 L 102 198.1 L 117.7 198.1 L 117.7 155.4 C 122.3 150.6 127.1 147.4 132.1 147.4 C 137.8 147.4 140.2 151.2 140.2 156.7 L 140.2 198.1 Z"
        fill="#000000"/>
    <path
        id="path_5"
        d="M 75.8 198.1 L 91.4 198.1 L 91.4 134.8 L 75.8 134.8 L 75.8 198.1 Z"
        fill="#000000"/>
    <path
        id="path_6"
        d="M 118.1 115.2 C 118.1 110 113.9 105.8 108.7 105.8 C 103.5 105.8 99.3 110 99.3 115.2 C 99.3 120.4 103.5 124.6 108.7 124.6 C 113.9 124.6 118.1 120.4 118.1 115.2 Z"
        fill="#000000"/>
    <path
        id="path_7"
        d="M 93 115.2 C 93 110 88.8 105.8 83.6 105.8 C 78.4 105.8 74.2 110 74.2 115.2 C 74.2 120.4 78.4 124.6 83.6 124.6 C 88.8 124.6 93 120.4 93 115.2 Z"
        fill="#000000"/>
    <path
        id="path_8"
        d="M 90.3 93.4 L 93.3 93.4 L 92.1 78 L 88.4 78 L 84.5 89.7 L 80.6 78 L 76.8 78 L 75.6 93.4 L 78.3 93.4 L 79.1 82.1 L 83 93.4 L 85.6 93.4 L 89.5 82.1 L 90.3 93.4 Z"
        fill="#000000"/>
    <path
        id="path_9"
        d="M 104.4 82.6 L 101.7 82.6 L 99.3 90.1 L 96.8 82.4 L 94 82.8 L 97.8 93.6 L 97.6 94.3 C 97.3 95 96.7 95.4 95.9 95.4 C 95.3 95.4 95 95.3 94.6 95.2 L 95 97.4 C 95.3 97.5 95.5 97.5 96 97.5 C 98.1 97.5 99.3 96.7 100.3 94 Z"
        fill="#000000"/>
    <path
        id="path_10"
        d="M 115.2 89 C 115.2 86.6 114.1 85.5 110.9 84.2 C 108.8 83.4 108.3 82.9 108.3 81.9 C 108.3 80.9 108.9 80.2 110.4 80.2 C 111.6 80.2 112.9 80.7 114 81.4 L 114.4 78.7 C 113.3 78.2 112 77.8 110.3 77.8 C 107.4 77.8 105.3 79.4 105.3 82.1 C 105.3 84.5 106.5 85.5 109.5 86.7 C 111.8 87.7 112.3 88.2 112.3 89.3 C 112.3 90.6 111.4 91.2 110 91.2 C 108.4 91.2 106.8 90.6 105.5 89.8 L 105.1 92.5 C 106.5 93.2 108.1 93.6 110 93.6 C 113 93.6 115.2 92 115.2 89 Z"
        fill="#000000"/>
    <path
        id="path_11"
        d="M 125.1 92.6 L 124.7 90.3 C 123.7 91.1 122.8 91.3 121.9 91.3 C 120.3 91.3 119.1 90.2 119.1 88 C 119.1 85.8 120.3 84.7 121.8 84.7 C 122.8 84.7 123.7 85 124.6 85.7 L 125 83.3 C 124.1 82.8 123.1 82.4 121.6 82.4 C 118.7 82.4 116.4 84.3 116.4 88.1 C 116.4 91.6 118.5 93.6 121.5 93.6 C 122.8 93.6 123.9 93.3 125.1 92.6 Z"
        fill="#000000"/>
    <path
        id="path_12"
        d="M 133 85.1 L 132.6 82.4 C 130.9 82.5 129.8 83.5 129.1 84.8 L 128.8 82.6 L 126.5 82.6 L 126.5 93.4 L 129.2 93.4 L 129.2 87.2 C 130 86 131.4 85.1 133 85.1 Z"
        fill="#000000"/>
    <path
        id="path_13"
        d="M 137.1 79.3 C 137.1 78.3 136.4 77.7 135.5 77.7 C 134.6 77.7 133.9 78.4 133.9 79.3 C 133.9 80.2 134.6 80.8 135.5 80.8 C 136.4 80.8 137.1 80.1 137.1 79.3 Z M 134.1 93.4 L 136.8 93.4 L 136.8 82.6 L 134.1 82.6 L 134.1 93.4 Z"
        fill="#000000"/>
    <path
        id="path_14"
        d="M 144.1 93.5 C 143.1 93.5 142.2 93.3 141.6 93.1 L 141.6 97.2 L 138.9 97.6 L 138.9 82.6 L 141.2 82.6 L 141.4 84.1 C 142.2 83.2 143.2 82.4 144.7 82.4 C 147 82.4 148.8 84.1 148.8 87.7 C 148.8 91.7 146.6 93.5 144.1 93.5 Z M 144 84.7 C 143 84.7 142.3 85.3 141.6 86.2 L 141.6 90.8 C 142.2 91.1 142.8 91.3 143.7 91.3 C 145.1 91.3 146.1 90.2 146.1 87.8 C 146.1 85.8 145.2 84.7 144 84.7 Z"
        fill="#000000"/>
    <path
        id="path_15"
        d="M 156 93.5 L 155.7 91.2 C 155.5 91.3 155.2 91.3 154.9 91.3 C 153.9 91.3 153.5 90.9 153.5 90 L 153.5 84.9 L 156 84.9 L 155.7 82.7 L 153.5 82.7 L 153.5 78.9 L 150.9 79.3 L 150.9 82.7 L 149.4 82.7 L 149.4 84.9 L 150.9 84.9 L 150.9 90.4 C 150.9 92.8 152.4 93.6 154.5 93.6 C 155.3 93.6 155.8 93.5 156 93.5 Z"
        fill="#000000"/>
    <path
        id="path_16"
        d="M 231.9 198.9 C 228.9 198.9 226.8 196.8 226.8 193.7 C 226.8 190.6 228.9 188.5 231.9 188.5 C 234.9 188.5 237 190.6 237 193.7 C 237 196.8 234.9 198.9 231.9 198.9 Z M 231.9 189.1 C 229.5 189.1 227.6 190.8 227.6 193.7 C 227.6 196.6 229.5 198.3 231.9 198.3 C 234.3 198.3 236.3 196.6 236.3 193.7 C 236.3 190.8 234.4 189.1 231.9 189.1 Z M 233.2 196.5 L 231.7 194.2 L 231.3 194.2 L 231.3 196.4 L 230 196.4 L 230 190.7 L 232 190.7 C 233.3 190.7 234.1 191.3 234.1 192.4 C 234.1 193.2 233.7 193.7 233 194 L 234.5 196.3 Z M 231.9 191.7 L 231.3 191.7 L 231.3 193.3 L 231.9 193.3 C 232.5 193.3 232.9 193 232.9 192.5 C 232.8 192 232.5 191.7 231.9 191.7 Z"
        fill="#000000"/>
</svg>
